# xmcd
#
# Track frame offsets: 
#        150
#        13032
#        25643
#        37921
#        51915
#        63956
#        77449
#        91037
#        102423
#        116308
#        128804
#        140741
#        153750
#        167259
#        178312
#        190160
#        201169
#        211834
#        222856
#        237522
#        252726
#        267642
#        282277
#        295247
#
# Disc length: 4079 seconds
#
# Revision: 0
# Processed by: cddbd v1.5.2PL0 Copyright (c) Steve Scherf et al.
# Submitted via: ExactAudioCopyFreeDBPlugin 1.0
#
DISCID=550fed18
DTITLE=Etta James - Call My Name [RE 2011]
DYEAR=1967
DGENRE=Blues
TTITLE0=Happiness
TTITLE1=That's All I Want from You
TTITLE2=Have Faith in Me
TTITLE3=I'm So Glad (I Found Love in You)
TTITLE4=You Are My Sunshine
TTITLE5=It Must Be Your Love
TTITLE6=842-3089 (Call My Name)
TTITLE7=Don't Pick Me for Your Fool
TTITLE8=I Prefer You
TTITLE9=Nobody Loves Me
TTITLE10=It's All Right
TTITLE11=Nobody Like You
TTITLE12=Do Right Woman, Do Right Man
TTITLE13=I Got You Babe
TTITLE14=You Took It
TTITLE15=I Worship the Ground You Walk On
TTITLE16=I've Gone Too Far
TTITLE17=You Got It
TTITLE18=Misty
TTITLE19=Almost Persuaded
TTITLE20=Slow and Easy
TTITLE21=The Soul of a Man
TTITLE22=Light My Fire
TTITLE23=Miss Pitiful
EXTD=
EXTT0=
EXTT1=
EXTT2=
EXTT3=
EXTT4=
EXTT5=
EXTT6=
EXTT7=
EXTT8=
EXTT9=
EXTT10=
EXTT11=
EXTT12=
EXTT13=
EXTT14=
EXTT15=
EXTT16=
EXTT17=
EXTT18=
EXTT19=
EXTT20=
EXTT21=
EXTT22=
EXTT23=
PLAYORDER=
